<svg width="373.68mm" height="100.72mm" version="1.1" viewBox="0 0 373.68 100.72" xmlns="http://www.w3.org/2000/svg">
 <defs>
  <linearGradient id="a" x1="1247.3" x2="1310.5" y1="10.856" y2="80.64" gradientUnits="userSpaceOnUse">
   <stop stop-color="#fdb663" offset="0"/>
   <stop stop-color="#944ada" offset=".4982"/>
   <stop stop-color="#26caa1" offset="1"/>
  </linearGradient>
 </defs>
 <g transform="translate(-153.34 -199.86)">
  <g transform="matrix(2.8291 0 0 2.8291 224.92 728.63)" font-family="Tav" font-size="10.583px" style="line-height:1.25;shape-inside:url(#rect12-8-5-7-4-9-6-5-7-6-9);white-space:pre">
   <g fill="#fff">
    <path d="m11.6-152.92h1.4732q1.4732 0 2.1844-0.4064 0.762-0.4572 0.762-1.4224v-28.702q0-1.8796-2.9464-1.8796h-1.4732v-1.5748h18.085q6.0452 0 8.636 2.8448 2.6416 2.8448 2.6416 8.0264 0 5.1308-2.6416 8.0264-2.5908 2.8448-8.636 2.8448h-7.5692v10.414q0 1.8288 2.8956 1.8288h1.524v1.5748h-14.935zm16.815-14.58q6.5532 0 6.5532-8.5344t-6.5532-8.5344h-6.2992v17.069z"/>
    <path d="m78.298-152.92h1.4732c0.98213 0 1.7103-0.13547 2.1844-0.4064 0.508-0.3048 0.762-0.77893 0.762-1.4224v-28.702c0-1.2531-0.98213-1.8796-2.9464-1.8796h-1.4732v-1.5748h14.935v1.5748h-1.524c-1.9304 0-2.8956 0.62653-2.8956 1.8796v27.584c0 1.4563 1.016 2.1844 3.048 2.1844h9.398c4.0131-0.57861 3.5302-4.6042 3.8458-7.4676h1.6764l-0.0358 9.8044h-28.448z"/>
    <path d="m53.397-186.04-12.091 31.293c-0.2032 0.54187-0.66038 0.98196-1.3716 1.3206-0.67733 0.33866-1.3714 0.50816-2.0826 0.50816h-0.762v1.5745h11.481v-1.5745h-0.96534c-0.67733 0-1.2532-0.15241-1.7274-0.45719-0.47414-0.30481-0.71103-0.7283-0.71103-1.2702 0-0.20319 0.05079-0.45718 0.15238-0.76199l2.337-6.2484h13.97l1.9307 5.2321c0.33865 0.94827 0.50766 1.6428 0.50766 2.0831 0 0.47414-0.1861 0.82974-0.55863 1.0668-0.33868 0.23707-0.91455 0.35575-1.7274 0.35575h-0.9144v1.5745h13.919v-1.5745h-0.96537c-0.64346 0-1.2531-0.15241-1.8288-0.45719-0.57575-0.30481-0.98214-0.7454-1.2192-1.3211l-12.517-32.207-4.516 7e-4zm1.3206 5.4864 6.0455 16.561h-12.243z" style="shape-inside:url(#rect12-8-5-7-4-9-6-5-7-6-9);white-space:pre"/>
   </g>
   <text fill="#000000" font-family="sans-serif" font-size="9.4087px" style="line-height:1.25;shape-inside:url(#rect710);white-space:pre" xml:space="preserve"/>
  </g>
  <g transform="matrix(.9002 0 0 .9002 -946.4 212.27)">
   <path d="m1266.5 97.984c-16.16-0.65856-26.03-3.9657-33.218-11.13-2.4864-2.4783-4.2041-4.9271-5.9071-8.4214-2.9797-6.1137-4.6484-13.521-5.4599-24.235-0.2966-3.9167-0.3434-19.022-0.071-22.845 0.8947-12.547 2.9113-20.836 6.6592-27.372 4.6886-8.1768 12.52-13.411 23.607-15.776 7.7973-1.6636 20.658-2.2125 29.906-1.2763 13.365 1.353 24.415 6.3751 31.8 14.452 6.459 7.0647 9.5331 15.544 10.649 29.375 0.2841 3.5196 0.4036 15.17 0.2008 19.562-0.844 18.272-4.336 29.173-11.712 36.562-6.4607 6.4724-15.177 9.7906-28.485 10.844-4.7119 0.37296-12.447 0.48475-17.97 0.25968z" fill="url(#a)" stroke-width=".13262"/>
   <g transform="matrix(1.4216 0 0 1.4216 -566.37 301.74)">
    <path d="m1282.9-209.86-10.32 10.32v-8.276 52.689c0 1.1442 0.9212 2.0652 2.0652 2.0652h37.177c1.1442 0 2.0652-0.92104 2.0652-2.0652v-52.667c0-1.1442-0.921-2.0653-2.0652-2.0653z" fill="#fff" stroke-width="1.4477" style="white-space:pre"/>
    <g fill="#202124">
     <g stroke-width="1.5738">
      <rect x="1277.2" y="-163.46" width="30.739" height="3.0981" ry=".95144" style="white-space:pre"/>
      <rect x="1277.2" y="-171.36" width="30.739" height="3.0981" ry=".95144" style="white-space:pre"/>
      <rect x="1277.2" y="-179.27" width="30.739" height="3.0981" ry=".95144" style="white-space:pre"/>
      <rect x="1277.2" y="-187.17" width="30.739" height="3.0981" ry=".95144" style="white-space:pre"/>
      <rect x="1277.2" y="-195.07" width="30.739" height="3.0981" ry=".95144" style="white-space:pre"/>
     </g>
     <rect x="1293.5" y="-202.98" width="14.439" height="2.6356" ry=".95144" stroke-width="1.0786" style="white-space:pre"/>
     <path d="m1283-209.87v10.327h-10.327l10.327-10.327z" stroke-width="1.5738" style="white-space:pre"/>
    </g>
   </g>
  </g>
 </g>
</svg>
