<svg width="6.2565mm" height="7.0693mm" version="1.1" viewBox="0 0 6.2565 7.0693" xmlns="http://www.w3.org/2000/svg">
 <g transform="translate(-80.483 -174.98)">
  <path transform="scale(.26458)" d="m315.78 661.32c-4.857 0-3.334 8-3.334 8-3.009-0.74498-8.2578-0.419-8.2578 3v13h11.877a6.25 6.25 0 0 1-1.5117-4.0742 6.25 6.25 0 0 1 0.0703-0.92578h-6.4356v-1h6.6719a6.25 6.25 0 0 1 1.082-2h-7.7539v-1h8.7695a6.25 6.25 0 0 1 3.8457-1.3242 6.25 6.25 0 0 1 3.3848 0.99609v-14.672zm-4.1582 0.0762c-2.202 1.174-5.9396 4.8828-7.4336 6.8809 1.286-0.90002 4.0448-1.6577 6.0918-1.1797-0.22201-1.468 0.1858-4.5332 1.3418-5.7012zm-3.4336 11.924h12v1h-12zm12.822 3.3086c-2.4823 0-4.502 2.0201-4.502 4.502 0 2.4823 2.0196 4.502 4.502 4.502 0.84059 0 1.6266-0.2327 2.3008-0.63477l3.041 3.041 1.4824-1.4824-3.0215-3.0215c0.44217-0.69653 0.69922-1.5204 0.69922-2.4043 4.7e-4 -2.4813-2.0196-4.502-4.502-4.502zm0 1.6777c1.5571 0 2.8242 1.2676 2.8242 2.8242 0 1.5571-1.2671 2.8242-2.8242 2.8242-1.5566 0-2.8242-1.2671-2.8242-2.8242 0-1.5562 1.2676-2.8242 2.8242-2.8242z"/>
 </g>
</svg>
